<mxfile host="app.diagrams.net" modified="2022-10-25T12:42:56.294Z" agent="5.0 (Windows NT 10.0; Win64; x64) AppleWebKit/537.36 (KHTML, like Gecko) Chrome/106.0.0.0 Safari/537.36" etag="_7MKIErf0WLSSpT4Ws0-" version="20.5.1" type="github">
  <diagram id="DLebBlnWqUooiw01ScZx" name="Страница 1">
    <mxGraphModel dx="981" dy="526" grid="1" gridSize="10" guides="1" tooltips="1" connect="1" arrows="1" fold="1" page="1" pageScale="1" pageWidth="827" pageHeight="1169" math="0" shadow="0">
      <root>
        <mxCell id="0" />
        <mxCell id="1" parent="0" />
        <mxCell id="rokzXhFX4bRfIpLpzX3M-12" style="edgeStyle=orthogonalEdgeStyle;rounded=0;orthogonalLoop=1;jettySize=auto;html=1;entryX=0.5;entryY=0;entryDx=0;entryDy=0;" edge="1" parent="1" source="rokzXhFX4bRfIpLpzX3M-1" target="rokzXhFX4bRfIpLpzX3M-2">
          <mxGeometry relative="1" as="geometry" />
        </mxCell>
        <mxCell id="rokzXhFX4bRfIpLpzX3M-1" value="&lt;div style=&quot;font-family: Consolas, &amp;quot;Courier New&amp;quot;, monospace; font-size: 14px; line-height: 19px;&quot;&gt;&lt;h5 style=&quot;line-height: 19px;&quot;&gt;&lt;span style=&quot;background-color: rgb(255, 255, 255);&quot;&gt;SecondArrayWithIF&lt;/span&gt;&lt;/h5&gt;&lt;/div&gt;" style="rounded=1;whiteSpace=wrap;html=1;labelBackgroundColor=default;fontColor=#000000;labelBorderColor=none;" vertex="1" parent="1">
          <mxGeometry x="340" y="10" width="120" height="60" as="geometry" />
        </mxCell>
        <mxCell id="rokzXhFX4bRfIpLpzX3M-9" style="edgeStyle=orthogonalEdgeStyle;rounded=0;orthogonalLoop=1;jettySize=auto;html=1;entryX=0.5;entryY=0;entryDx=0;entryDy=0;" edge="1" parent="1" source="rokzXhFX4bRfIpLpzX3M-2" target="rokzXhFX4bRfIpLpzX3M-4">
          <mxGeometry relative="1" as="geometry" />
        </mxCell>
        <mxCell id="rokzXhFX4bRfIpLpzX3M-2" value="string[] array1&lt;br&gt;string array2&lt;br&gt;int count =0&amp;nbsp;" style="shape=parallelogram;perimeter=parallelogramPerimeter;whiteSpace=wrap;html=1;fixedSize=1;" vertex="1" parent="1">
          <mxGeometry x="340" y="120" width="120" height="60" as="geometry" />
        </mxCell>
        <mxCell id="rokzXhFX4bRfIpLpzX3M-5" style="edgeStyle=orthogonalEdgeStyle;rounded=0;orthogonalLoop=1;jettySize=auto;html=1;entryX=1;entryY=0.5;entryDx=0;entryDy=0;" edge="1" parent="1" source="rokzXhFX4bRfIpLpzX3M-3" target="rokzXhFX4bRfIpLpzX3M-4">
          <mxGeometry relative="1" as="geometry">
            <mxPoint x="550" y="260" as="targetPoint" />
            <Array as="points">
              <mxPoint x="600" y="420" />
              <mxPoint x="600" y="260" />
            </Array>
          </mxGeometry>
        </mxCell>
        <mxCell id="rokzXhFX4bRfIpLpzX3M-7" style="edgeStyle=orthogonalEdgeStyle;rounded=0;orthogonalLoop=1;jettySize=auto;html=1;entryX=0.5;entryY=1;entryDx=0;entryDy=0;" edge="1" parent="1" source="rokzXhFX4bRfIpLpzX3M-3" target="rokzXhFX4bRfIpLpzX3M-6">
          <mxGeometry relative="1" as="geometry" />
        </mxCell>
        <mxCell id="rokzXhFX4bRfIpLpzX3M-3" value="if(array1[i].length&amp;lt;= 3)" style="rhombus;whiteSpace=wrap;html=1;" vertex="1" parent="1">
          <mxGeometry x="310" y="360" width="140" height="120" as="geometry" />
        </mxCell>
        <mxCell id="rokzXhFX4bRfIpLpzX3M-4" value="for(int i = 0; i&amp;lt;array1.length; i++)" style="rounded=0;whiteSpace=wrap;html=1;" vertex="1" parent="1">
          <mxGeometry x="340" y="230" width="180" height="60" as="geometry" />
        </mxCell>
        <mxCell id="rokzXhFX4bRfIpLpzX3M-8" style="edgeStyle=orthogonalEdgeStyle;rounded=0;orthogonalLoop=1;jettySize=auto;html=1;" edge="1" parent="1" source="rokzXhFX4bRfIpLpzX3M-6" target="rokzXhFX4bRfIpLpzX3M-4">
          <mxGeometry relative="1" as="geometry" />
        </mxCell>
        <mxCell id="rokzXhFX4bRfIpLpzX3M-6" value="array2[conut] = array1[i]&lt;br&gt;count++" style="rounded=0;whiteSpace=wrap;html=1;" vertex="1" parent="1">
          <mxGeometry x="40" y="260" width="120" height="60" as="geometry" />
        </mxCell>
        <mxCell id="rokzXhFX4bRfIpLpzX3M-14" value="No" style="text;html=1;strokeColor=none;fillColor=none;align=center;verticalAlign=middle;whiteSpace=wrap;rounded=0;labelBackgroundColor=#FFFFFF;labelBorderColor=none;fontColor=#000000;" vertex="1" parent="1">
          <mxGeometry x="490" y="390" width="60" height="30" as="geometry" />
        </mxCell>
        <mxCell id="rokzXhFX4bRfIpLpzX3M-15" value="Yes" style="text;html=1;strokeColor=none;fillColor=none;align=center;verticalAlign=middle;whiteSpace=wrap;rounded=0;labelBackgroundColor=#FFFFFF;labelBorderColor=none;fontColor=#000000;" vertex="1" parent="1">
          <mxGeometry x="190" y="390" width="60" height="30" as="geometry" />
        </mxCell>
      </root>
    </mxGraphModel>
  </diagram>
</mxfile>
